<svg xmlns="http://www.w3.org/2000/svg" width="600" height="400" viewBox="0 0 600 400"><rect width="100%" height="100%" fill="#DDDDDD"/><path fill="#999999" d="M131.735 188.075h3.2v19.52h-1.86q-.44 0-.73-.14t-.56-.48l-10.19-13.01q.08.89.08 1.64v11.99h-3.2v-19.52h1.91q.23 0 .39.02.17.02.3.08.13.06.25.18.12.11.27.3l10.23 13.07q-.04-.47-.06-.93-.03-.46-.03-.85v-11.87Zm9.65 11h6.29q0-.65-.18-1.22t-.55-1.01q-.36-.43-.92-.68-.56-.25-1.3-.25-1.45 0-2.28.83-.83.82-1.06 2.33Zm8.51 2.01h-8.57q.08 1.07.37 1.85.3.77.79 1.28.48.5 1.15.75.67.25 1.48.25.81 0 1.4-.18.58-.19 1.02-.42.44-.23.77-.42.33-.19.64-.19.42 0 .62.31l.96 1.21q-.55.65-1.24 1.09-.69.44-1.44.7-.75.27-1.52.37-.78.11-1.51.11-1.44 0-2.68-.48-1.25-.48-2.16-1.41-.92-.94-1.45-2.33-.53-1.38-.53-3.2 0-1.42.46-2.67t1.32-2.17q.86-.93 2.09-1.47 1.24-.54 2.79-.54 1.31 0 2.42.42 1.1.42 1.9 1.22.8.81 1.25 1.97.45 1.17.45 2.67 0 .76-.16 1.02t-.62.26Zm6.17-6.73.23 1.09q.42-.42.88-.78.47-.35.99-.6t1.11-.4q.59-.14 1.3-.14 1.13 0 2.01.39.88.38 1.46 1.08.59.69.89 1.66.31.96.31 2.12v8.82h-3.34v-8.82q0-1.26-.58-1.96-.58-.69-1.77-.69-.86 0-1.62.39-.75.39-1.43 1.06v10.02h-3.33v-13.85h2.04q.64 0 .85.61Zm15.67-6.82v7.69q.81-.75 1.78-1.22.97-.48 2.28-.48 1.14 0 2.02.39.87.38 1.46 1.08.59.69.89 1.66.31.96.31 2.12v8.82h-3.34v-8.82q0-1.26-.58-1.96-.58-.69-1.77-.69-.86 0-1.62.39-.75.39-1.43 1.06v10.02h-3.33v-20.06h3.33Zm20.49 6.21h3.34v13.85h-2.04q-.66 0-.84-.61l-.23-1.1q-.85.86-1.87 1.39-1.03.54-2.42.54-1.13 0-2-.39-.88-.38-1.47-1.09-.59-.7-.9-1.66-.3-.97-.3-2.13v-8.8h3.33v8.8q0 1.27.59 1.97.59.69 1.76.69.87 0 1.62-.38.76-.39 1.43-1.06v-10.02Zm9.97 13.85h-3.34v-13.85h2.04q.65 0 .85.61l.22 1.02q.36-.4.76-.74.4-.34.85-.58.45-.24.97-.39.52-.14 1.14-.14 1.31 0 2.16.71.84.71 1.26 1.89.32-.69.81-1.19.48-.49 1.07-.8.58-.31 1.23-.46.66-.15 1.32-.15 1.14 0 2.04.35.89.35 1.49 1.03.61.67.93 1.65.32.97.32 2.22v8.82h-3.34v-8.82q0-1.32-.58-1.99-.58-.66-1.7-.66-.51 0-.95.17-.44.18-.77.51t-.52.83q-.19.5-.19 1.14v8.82h-3.35v-8.82q0-1.39-.56-2.02-.56-.63-1.64-.63-.73 0-1.36.35-.62.36-1.16.98v10.14Zm26.59-3.58v-2.33q-1.44.06-2.43.25-.98.18-1.58.46-.59.29-.85.66-.25.38-.25.83 0 .88.51 1.25.52.38 1.36.38 1.03 0 1.78-.37t1.46-1.13Zm-7.05-7.27-.59-1.07q2.39-2.19 5.75-2.19 1.22 0 2.18.4.95.4 1.62 1.11.66.71 1 1.69.35.99.35 2.16v8.75h-1.52q-.47 0-.73-.14-.25-.14-.4-.58l-.3-.99q-.52.47-1.02.83-.5.35-1.04.6-.54.24-1.16.37-.61.13-1.35.13-.88 0-1.62-.24-.75-.24-1.29-.71t-.83-1.17q-.3-.71-.3-1.64 0-.52.17-1.04.18-.52.58-1 .4-.47 1.03-.89.64-.41 1.56-.73.93-.31 2.15-.5 1.23-.2 2.81-.24v-.81q0-1.39-.59-2.06-.6-.66-1.72-.66-.81 0-1.34.18-.53.19-.94.43-.4.24-.73.42-.33.19-.74.19-.35 0-.59-.18-.25-.18-.4-.42Zm24.17-8.67v19.52h-3.65v-19.52h3.65Zm7.17 19.52h-3.34v-13.85h2.04q.65 0 .85.61l.22 1.02q.36-.4.76-.74.4-.34.85-.58.45-.24.97-.39.52-.14 1.14-.14 1.31 0 2.16.71.84.71 1.26 1.89.32-.69.81-1.19.49-.49 1.07-.8.58-.31 1.23-.46.66-.15 1.32-.15 1.15 0 2.04.35.89.35 1.5 1.03.6.67.92 1.65.32.97.32 2.22v8.82h-3.34v-8.82q0-1.32-.58-1.99-.58-.66-1.7-.66-.51 0-.95.17-.44.18-.77.51t-.52.83q-.19.5-.19 1.14v8.82h-3.35v-8.82q0-1.39-.56-2.02-.56-.63-1.64-.63-.73 0-1.35.35-.63.36-1.17.98v10.14Zm26.59-3.58v-2.33q-1.44.06-2.43.25-.98.18-1.58.46-.59.29-.85.66-.25.38-.25.83 0 .88.52 1.25.52.38 1.35.38 1.03 0 1.78-.37t1.46-1.13Zm-7.04-7.27-.6-1.07q2.39-2.19 5.75-2.19 1.22 0 2.18.4.96.4 1.62 1.11.66.71 1 1.69.35.99.35 2.16v8.75h-1.52q-.47 0-.72-.14-.26-.14-.41-.58l-.3-.99q-.52.47-1.02.83-.5.35-1.04.6-.54.24-1.16.37-.61.13-1.35.13-.88 0-1.62-.24-.75-.24-1.29-.71t-.83-1.17q-.3-.71-.3-1.64 0-.52.18-1.04.17-.52.57-1 .4-.47 1.03-.89.64-.41 1.56-.73.93-.31 2.16-.5 1.22-.2 2.8-.24v-.81q0-1.39-.59-2.06-.59-.66-1.72-.66-.81 0-1.34.18-.53.19-.94.43-.4.24-.73.42-.33.19-.74.19-.35 0-.59-.18-.25-.18-.39-.42Zm18.49 3.59q.62 0 1.08-.17.46-.17.76-.47.31-.29.46-.71.16-.42.16-.92 0-1.03-.62-1.63-.61-.6-1.84-.6t-1.84.6q-.62.6-.62 1.63 0 .49.16.9.15.42.46.73.3.3.77.47.46.17 1.07.17Zm3.77 7.88q0-.4-.25-.66-.24-.26-.66-.4-.42-.14-.98-.21-.56-.07-1.18-.1l-1.3-.06q-.67-.03-1.3-.11-.56.31-.9.73-.34.42-.34.97 0 .37.18.68.18.32.58.55.4.23 1.03.36.64.13 1.55.13.94 0 1.61-.14.68-.15 1.11-.4.44-.25.65-.59.2-.34.2-.75Zm-.66-14h3.98v1.24q0 .6-.72.73l-1.24.23q.28.72.28 1.57 0 1.02-.41 1.85-.41.83-1.14 1.42-.73.58-1.72.89-.99.32-2.14.32-.4 0-.78-.04t-.74-.11q-.65.39-.65.88 0 .42.38.61.39.2 1.02.28.64.08 1.45.1.81.02 1.66.09.85.07 1.66.24.81.16 1.44.53.64.36 1.02.99.39.63.39 1.61 0 .92-.46 1.79-.45.86-1.31 1.54-.85.67-2.1 1.08-1.25.41-2.84.41-1.57 0-2.73-.3t-1.93-.81q-.77-.51-1.15-1.17-.38-.66-.38-1.37 0-.98.59-1.63.59-.66 1.61-1.05-.55-.28-.87-.75-.33-.48-.33-1.25 0-.31.12-.64.11-.33.33-.65.23-.33.56-.62.34-.29.8-.52-1.05-.56-1.65-1.51-.6-.94-.6-2.21 0-1.03.41-1.86.41-.83 1.15-1.42.73-.58 1.74-.89 1-.31 2.19-.31.89 0 1.68.18.78.18 1.43.53Zm8.72 4.86h6.29q0-.65-.18-1.22-.19-.57-.55-1.01-.37-.43-.93-.68-.56-.25-1.3-.25-1.44 0-2.27.83-.83.82-1.06 2.33Zm8.5 2.01h-8.57q.08 1.07.38 1.85.29.77.78 1.28.49.5 1.15.75.67.25 1.48.25.81 0 1.4-.18.59-.19 1.03-.42.44-.23.77-.42.33-.19.64-.19.42 0 .62.31l.96 1.21q-.56.65-1.25 1.09-.68.44-1.43.7-.75.27-1.53.37-.77.11-1.5.11-1.45 0-2.69-.48t-2.16-1.41q-.92-.94-1.44-2.33-.53-1.38-.53-3.2 0-1.42.46-2.67t1.31-2.17q.86-.93 2.1-1.47 1.23-.54 2.78-.54 1.31 0 2.42.42 1.11.42 1.9 1.22.8.81 1.25 1.97.46 1.17.46 2.67 0 .76-.17 1.02-.16.26-.62.26Zm6.62 6.51h-3.34v-13.85h2.04q.65 0 .85.61l.22 1.02q.36-.4.76-.74.4-.34.85-.58.45-.24.97-.39.52-.14 1.14-.14 1.31 0 2.16.71.84.71 1.26 1.89.32-.69.81-1.19.49-.49 1.07-.8.58-.31 1.23-.46.66-.15 1.32-.15 1.14 0 2.04.35.89.35 1.49 1.03.61.67.93 1.65.32.97.32 2.22v8.82h-3.34v-8.82q0-1.32-.58-1.99-.58-.66-1.7-.66-.51 0-.95.17-.44.18-.77.51t-.52.83q-.19.5-.19 1.14v8.82h-3.35v-8.82q0-1.39-.56-2.02-.56-.63-1.64-.63-.73 0-1.36.35-.62.36-1.16.98v10.14Zm35.04-12.35-.75 1.2q-.14.21-.29.3-.14.09-.37.09-.25 0-.52-.13-.28-.14-.65-.31-.36-.17-.83-.3-.46-.14-1.1-.14-.98 0-1.54.42t-.56 1.09q0 .45.29.75.29.31.77.54.48.23 1.08.41.61.18 1.24.4.63.21 1.24.49.6.28 1.08.7.48.43.77 1.02.29.6.29 1.43 0 1-.36 1.85-.35.84-1.06 1.45-.7.62-1.73.96-1.03.35-2.38.35-.72 0-1.4-.13-.68-.13-1.31-.36-.63-.23-1.16-.54-.53-.31-.94-.67l.77-1.27q.15-.23.35-.35.2-.13.51-.13t.59.18q.28.17.64.38.37.2.86.38.49.17 1.25.17.59 0 1.02-.14.42-.14.7-.37.28-.23.4-.54.13-.3.13-.62 0-.49-.29-.8-.29-.31-.77-.54-.48-.23-1.09-.41-.61-.18-1.26-.4-.64-.22-1.25-.51-.62-.29-1.09-.73-.48-.45-.77-1.1-.29-.64-.29-1.56 0-.85.33-1.62.34-.77 1-1.34.65-.58 1.63-.92.98-.35 2.26-.35 1.43 0 2.61.48 1.17.47 1.95 1.24Zm5.3 3.83h6.29q0-.65-.19-1.22-.18-.57-.54-1.01-.37-.43-.93-.68-.56-.25-1.3-.25-1.44 0-2.28.83-.83.82-1.05 2.33Zm8.5 2.01h-8.57q.08 1.07.38 1.85.29.77.78 1.28.48.5 1.15.75.67.25 1.48.25.81 0 1.4-.18.59-.19 1.02-.42.44-.23.77-.42.33-.19.65-.19.41 0 .62.31l.95 1.21q-.55.65-1.24 1.09-.69.44-1.44.7-.74.27-1.52.37-.78.11-1.51.11-1.44 0-2.68-.48-1.24-.48-2.16-1.41-.92-.94-1.45-2.33-.52-1.38-.52-3.2 0-1.42.46-2.67.45-1.25 1.31-2.17.86-.93 2.09-1.47 1.24-.54 2.79-.54 1.31 0 2.42.42 1.11.42 1.9 1.22.8.81 1.25 1.97.45 1.17.45 2.67 0 .76-.16 1.02t-.62.26Zm3.32-13.55h3.34v20.06h-3.34v-20.06Zm9.3 11.54h6.29q0-.65-.18-1.22t-.55-1.01q-.36-.43-.92-.68-.56-.25-1.3-.25-1.45 0-2.28.83-.83.82-1.06 2.33Zm8.51 2.01h-8.57q.08 1.07.37 1.85.3.77.79 1.28.48.5 1.15.75.67.25 1.48.25.81 0 1.4-.18.58-.19 1.02-.42.44-.23.77-.42.33-.19.64-.19.42 0 .62.31l.96 1.21q-.55.65-1.24 1.09-.69.44-1.44.7-.75.27-1.52.37-.78.11-1.51.11-1.44 0-2.68-.48-1.25-.48-2.16-1.41-.92-.94-1.45-2.33-.53-1.38-.53-3.2 0-1.42.46-2.67t1.32-2.17q.86-.93 2.09-1.47 1.24-.54 2.79-.54 1.31 0 2.42.42 1.1.42 1.9 1.22.8.81 1.25 1.97.45 1.17.45 2.67 0 .76-.16 1.02t-.62.26Zm14.08-5.63-.88 1.22q-.15.19-.29.3-.14.1-.41.1-.26 0-.5-.15-.24-.16-.58-.35-.34-.2-.8-.35-.47-.16-1.16-.16-.88 0-1.54.32t-1.1.91q-.44.59-.65 1.44-.22.84-.22 1.91 0 1.1.24 1.97.23.86.68 1.45.44.59 1.08.89.63.3 1.43.3.8 0 1.29-.19.49-.2.83-.43.34-.24.59-.44.25-.19.56-.19.4 0 .6.31l.96 1.21q-.55.65-1.2 1.09-.65.44-1.34.7-.7.27-1.43.37-.74.11-1.47.11-1.28 0-2.41-.48-1.14-.48-1.99-1.39-.85-.92-1.34-2.25-.49-1.33-.49-3.03 0-1.53.43-2.83.44-1.3 1.29-2.26.85-.95 2.11-1.49 1.26-.54 2.89-.54 1.55 0 2.72.5 1.17.5 2.1 1.43Zm2.32-1.71h3.35v13.85h-3.35v-13.85Zm3.81-4.04q0 .43-.18.81-.17.38-.46.66-.29.29-.69.46-.39.17-.83.17-.43 0-.82-.17-.38-.17-.67-.46-.28-.28-.45-.66-.17-.38-.17-.81 0-.44.17-.83.17-.4.45-.68.29-.28.67-.45.39-.17.82-.17.44 0 .83.17.4.17.69.45.29.28.46.68.18.39.18.83Zm9.07 3.82q1.54 0 2.8.5 1.26.5 2.16 1.42.9.92 1.38 2.24.49 1.32.49 2.96t-.49 2.97q-.48 1.32-1.38 2.25-.9.93-2.16 1.43-1.26.5-2.8.5-1.55 0-2.82-.5-1.27-.5-2.17-1.43-.9-.93-1.39-2.25-.49-1.33-.49-2.97 0-1.64.49-2.96t1.39-2.24q.9-.92 2.17-1.42 1.27-.5 2.82-.5Zm0 11.71q1.73 0 2.56-1.16.83-1.16.83-3.41 0-2.24-.83-3.41-.83-1.18-2.56-1.18-1.76 0-2.6 1.19-.84 1.18-.84 3.4 0 2.23.84 3.4t2.6 1.17Zm12.27-10.88.23 1.09q.42-.42.88-.78.47-.35.99-.6t1.11-.4q.6-.14 1.3-.14 1.13 0 2.01.39.88.38 1.47 1.08.58.69.89 1.66.3.96.3 2.12v8.82h-3.33v-8.82q0-1.26-.58-1.96-.58-.69-1.77-.69-.87 0-1.62.39-.76.39-1.43 1.06v10.02h-3.34v-13.85h2.04q.65 0 .85.61Zm19.66 9.66v-2.33q-1.45.06-2.43.25-.99.18-1.58.46-.6.29-.85.66-.26.38-.26.83 0 .88.52 1.25.52.38 1.36.38 1.02 0 1.77-.37t1.47-1.13Zm-7.05-7.27-.59-1.07q2.39-2.19 5.75-2.19 1.21 0 2.17.4t1.62 1.11q.66.71 1.01 1.69.34.99.34 2.16v8.75h-1.51q-.47 0-.73-.14t-.41-.58l-.29-.99q-.53.47-1.03.83-.5.35-1.04.6-.54.24-1.15.37-.62.13-1.36.13-.88 0-1.62-.24-.74-.24-1.28-.71t-.84-1.17q-.3-.71-.3-1.64 0-.52.18-1.04t.57-1q.4-.47 1.04-.89.63-.41 1.56-.73.92-.31 2.15-.5 1.23-.2 2.81-.24v-.81q0-1.39-.6-2.06-.59-.66-1.71-.66-.81 0-1.35.18-.53.19-.93.43-.41.24-.74.42-.33.19-.73.19-.36 0-.6-.18t-.39-.42Zm22.13 6.75v-6.21q-.57-.69-1.24-.98-.67-.28-1.44-.28-.75 0-1.36.28-.61.29-1.04.86-.43.57-.66 1.46-.23.88-.23 2.09t.19 2.05q.2.85.57 1.38.36.53.89.77.52.24 1.17.24 1.04 0 1.77-.44.73-.43 1.38-1.22Zm0-15.96h3.33v20.06h-2.04q-.66 0-.83-.61l-.29-1.33q-.84.95-1.92 1.55-1.09.59-2.53.59-1.14 0-2.08-.47-.95-.47-1.63-1.37-.68-.9-1.05-2.22-.37-1.32-.37-3.02 0-1.54.42-2.87.41-1.32 1.2-2.29.78-.97 1.87-1.52 1.1-.55 2.46-.55 1.16 0 1.98.37.83.36 1.48.98v-7.3Zm13.94 16.48v-2.33q-1.44.06-2.43.25-.98.18-1.58.46-.59.29-.85.66-.25.38-.25.83 0 .88.51 1.25.52.38 1.36.38 1.03 0 1.78-.37t1.46-1.13Zm-7.05-7.27-.59-1.07q2.39-2.19 5.75-2.19 1.22 0 2.18.4.95.4 1.62 1.11.66.71 1 1.69.35.99.35 2.16v8.75h-1.52q-.47 0-.73-.14-.25-.14-.4-.58l-.3-.99q-.52.47-1.02.83-.5.35-1.04.6-.54.24-1.16.37-.61.13-1.35.13-.88 0-1.62-.24-.75-.24-1.29-.71t-.83-1.17q-.3-.71-.3-1.64 0-.52.17-1.04.18-.52.58-1 .4-.47 1.03-.89.64-.41 1.56-.73.93-.31 2.15-.5 1.23-.2 2.81-.24v-.81q0-1.39-.59-2.06-.6-.66-1.72-.66-.81 0-1.34.18-.53.19-.94.43-.4.24-.73.42-.33.19-.74.19-.35 0-.59-.18-.25-.18-.4-.42Z"/></svg>